<svg width="32" height="38" viewBox="0 0 32 38" fill="none" xmlns="http://www.w3.org/2000/svg">
<path d="M27.227 17.8672C27.1756 15.4753 27.422 13.104 26.6213 10.7942C24.9788 6.05154 20.2977 2.91029 15.2881 3.25932C9.92954 3.62888 5.60775 7.60164 4.90969 12.95C4.70438 14.5514 4.78651 16.1939 4.73518 17.8877C5.06368 17.8056 5.31005 17.7337 5.56669 17.6721C6.02864 17.5592 6.21342 17.6619 6.32634 18.1135C7.42475 22.3019 8.52316 26.5005 9.62157 30.6888C9.74476 31.1713 9.6421 31.3458 9.15962 31.469C8.24599 31.7154 7.33236 31.9617 6.40846 32.1773C4.41695 32.629 2.42543 31.5409 1.86083 29.6007C1.2141 27.3833 0.639232 25.1352 0.105425 22.887C-0.223072 21.4806 0.228611 20.2488 1.28596 19.2735C1.50154 19.0785 1.56313 18.8835 1.56313 18.6166C1.55286 17.1588 1.5426 15.7011 1.56313 14.2332C1.65552 7.57084 6.29554 1.87347 12.8347 0.364437C20.811 -1.48336 28.8797 3.89578 30.2142 11.9645C30.4195 13.2066 30.399 14.4898 30.4503 15.7525C30.4811 16.738 30.4503 17.7235 30.4709 18.7089C30.4709 18.8732 30.5633 19.0785 30.6762 19.1914C31.8362 20.3001 32.2468 21.6141 31.8567 23.1745C31.3434 25.1968 30.7994 27.2088 30.2861 29.2311C29.7625 31.3356 27.8942 32.4648 26.108 32.2697C26.0567 32.2594 26.0156 32.2697 25.9027 32.28C25.9027 32.6701 25.9438 33.0602 25.8924 33.4297C25.6974 34.8669 24.5477 35.8524 23.09 35.8627C21.776 35.8729 20.4517 35.8627 19.0864 35.8627C19.0864 36.109 19.0864 36.3349 19.0864 36.5607C19.0761 37.1458 18.7579 37.4743 18.183 37.4743C16.7356 37.4846 15.2881 37.4846 13.8407 37.4743C13.2658 37.4743 12.9373 37.1458 12.9373 36.5607C12.9271 35.7805 12.9271 35.0003 12.9373 34.2202C12.9373 33.7377 13.235 33.4092 13.7175 33.4092C15.2368 33.3989 16.7664 33.3989 18.2857 33.4092C18.7682 33.4092 19.0659 33.7274 19.0761 34.2202C19.0864 34.446 19.0761 34.6718 19.0761 34.949C19.5278 34.949 19.9487 34.949 20.3593 34.949C21.273 34.949 22.1763 34.9593 23.09 34.949C24.1781 34.9388 24.9685 34.1483 24.9891 33.0499C24.9993 32.7214 24.9891 32.3826 24.9891 32.0336C24.2808 31.8488 23.593 31.664 22.8949 31.4895C22.3508 31.3458 22.2482 31.1918 22.3919 30.6375C23.4698 26.5107 24.5477 22.3737 25.6358 18.247C25.8001 17.6311 25.9232 17.5592 26.57 17.7235C26.765 17.7645 26.9703 17.8056 27.227 17.8672ZM2.47676 18.4831C2.86685 18.3804 3.22615 18.2675 3.58544 18.1957C3.80102 18.1546 3.87288 18.052 3.86261 17.8364C3.85234 16.738 3.83181 15.6293 3.86261 14.5309C3.88314 13.7507 3.93447 12.9705 4.07819 12.2006C5.27925 5.59986 11.7979 1.19595 18.3575 2.54073C24.0446 3.70074 28.0893 8.61793 28.1303 14.418C28.1406 15.5472 28.1303 16.6764 28.1303 17.7953C28.1303 17.9596 28.0995 18.1238 28.3356 18.1751C28.7155 18.2573 29.0953 18.3702 29.5162 18.4728C29.5162 17.087 29.5778 15.7114 29.4956 14.3461C29.434 13.2271 29.3314 12.0877 29.0542 11.0098C26.765 2.33542 16.9204 -1.74 9.16989 2.80763C5.45377 4.99419 3.23641 8.28943 2.64101 12.5702C2.4357 14.0073 2.51782 15.4856 2.47676 16.933C2.4665 17.4463 2.47676 17.9493 2.47676 18.4831ZM2.95924 19.3249C1.5118 19.8382 0.659763 21.2753 1.00879 22.7022C1.5426 24.8991 2.11747 27.0856 2.72313 29.2722C3.13376 30.7402 4.62226 31.6025 6.07996 31.2842C6.0697 31.2124 6.04917 31.1405 6.0389 31.0686C5.63855 29.5186 5.22792 27.9787 4.82757 26.4286C4.74544 26.1207 4.76598 25.8538 5.10474 25.7306C5.38191 25.6279 5.61802 25.8127 5.72067 26.1925C5.87465 26.7879 6.02864 27.3833 6.18262 27.9685C6.44952 28.995 6.71643 30.0113 6.9936 31.0686C7.5582 30.9147 8.10227 30.7812 8.65661 30.6272C7.60953 26.6031 6.56244 22.6304 5.52563 18.6268C4.96102 18.7808 4.41695 18.9143 3.85234 19.058C4.10898 20.0332 4.35536 20.9776 4.59146 21.9118C4.67359 22.23 4.76598 22.5483 4.8481 22.8768C4.91996 23.1745 4.85837 23.4311 4.54013 23.5235C4.21164 23.6159 4.03712 23.4106 3.955 23.1129C3.9242 22.9897 3.89341 22.8665 3.86261 22.7433C3.56491 21.6244 3.26721 20.4951 2.95924 19.3249ZM25.9232 31.2842C27.3912 31.5922 28.8386 30.7401 29.2903 29.3132C29.4033 28.9745 29.4854 28.6254 29.5675 28.2764C30.05 26.4081 30.5633 24.55 31.0047 22.6714C31.3434 21.2548 30.3785 19.6739 29.0337 19.3659C27.9969 23.3284 26.9601 27.3012 25.9232 31.2842ZM26.4878 18.6371C25.4408 22.6509 24.3937 26.6339 23.3466 30.6478C23.9317 30.8017 24.4553 30.9352 25.0096 31.0789C26.0567 27.0651 27.0935 23.0923 28.1406 19.0785C27.5965 18.9245 27.0524 18.7808 26.4878 18.6371ZM18.142 34.3434C16.7048 34.3434 15.2881 34.3434 13.892 34.3434C13.892 35.0927 13.892 35.8113 13.892 36.5299C15.3292 36.5299 16.7253 36.5299 18.142 36.5299C18.142 35.8011 18.142 35.0825 18.142 34.3434Z" fill="white"/>
</svg>
